<svg width="96" height="96" viewBox="0 0 96 96" fill="none" xmlns="http://www.w3.org/2000/svg">
<g clip-path="url(#clip0_381_76)">
<path fill-rule="evenodd" clip-rule="evenodd" d="M55.1324 46.1192C56.1638 43.7184 56.598 41.6153 56.8287 39.9765C58.9728 24.296 46.4881 15.7029 33.2162 11.7622C29.6608 10.7044 23.8527 10.2851 19.4695 11.8755C16.389 12.9918 14.0006 15.0763 13.4035 18.517C12.7385 22.2656 14.5706 26.182 17.5289 29.7149C21.8036 34.8281 28.4124 39.1551 32.5649 41.0341C37.3552 43.1999 45.104 45.743 52.9748 47.2333C51.6585 49.7352 49.6636 52.5045 46.5696 55.3633C45.1989 56.6389 43.3127 57.7295 41.1686 58.6064C39.5537 55.4707 37.2467 52.5142 34.2477 49.9057C31.7236 47.7166 25.5626 44.1155 20.1073 43.0103C16.2126 42.2245 12.6843 42.7305 10.8116 45.5437C8.49107 49.0406 9.30524 52.2998 11.5715 55.0261C14.7605 58.8665 20.9351 61.5953 24.5855 62.2683C28.8331 63.0492 35.1297 62.3248 40.4086 60.4487C45.3075 71.3315 41.7385 84.1323 30.2579 91.1726C29.9187 91.3856 29.8101 91.8402 30.0137 92.1877C30.2308 92.5351 30.6922 92.6436 31.0315 92.4305C43.177 84.9791 46.9766 71.4358 41.8063 59.914C44.0861 58.9752 46.1081 57.8087 47.5737 56.4469C50.9799 53.2955 53.124 50.2432 54.4946 47.508C55.9738 47.762 57.453 47.9752 58.9186 48.1383C65.5002 48.8745 71.6747 48.5701 75.7322 46.4526C85.1094 41.5606 87.7149 31.8692 85.9372 22.409C84.173 13.0399 78.1071 3.93239 70.2499 0.0755499C69.8835 -0.103986 69.4357 0.047461 69.2593 0.413319C69.0828 0.779312 69.2321 1.22212 69.5985 1.40152C77.0758 5.07149 82.816 13.7662 84.4851 22.6812C86.1407 31.5054 83.793 40.58 75.0537 45.1431C71.1861 47.153 65.3374 47.3694 59.0815 46.6705C57.7787 46.5251 56.4623 46.3389 55.1324 46.1192ZM39.7707 59.1398C38.2373 56.2165 36.0797 53.4578 33.2706 51.0208C30.8686 48.9365 25.0198 45.5103 19.8087 44.4579C16.579 43.8053 13.5935 44.0247 12.0465 46.3609C10.1466 49.2101 10.8659 51.8619 12.7115 54.0832C15.6698 57.6641 21.4508 60.1883 24.8569 60.8158C28.8466 61.5517 34.7904 60.8904 39.7707 59.1398ZM53.6397 45.8559C54.6982 43.4739 55.1324 41.3892 55.3631 39.7764C57.3987 24.9091 45.3754 16.9144 32.7956 13.178C29.4844 12.1913 24.0699 11.7804 19.9716 13.2639C17.4068 14.197 15.3577 15.8971 14.8555 18.7731C14.2585 22.1319 16.009 25.6012 18.6553 28.7669C22.7807 33.7015 29.1723 37.8752 33.1756 39.6886C37.9659 41.8547 45.7553 44.4031 53.6397 45.8559Z" fill="white"/>
<path fill-rule="evenodd" clip-rule="evenodd" d="M31.1836 91.3861C31.455 90.6832 32.2285 88.6571 32.3371 88.3477C32.6357 87.4792 32.6628 87.0015 32.6357 86.513C32.6085 86.1208 32.5271 85.7178 32.5678 84.9795C32.595 84.5724 32.2693 84.2264 31.8621 84.206C31.455 84.1857 31.1157 84.5005 31.0886 84.9076C31.0615 85.5766 31.1022 86.0014 31.1429 86.3732C31.1837 86.802 31.1972 87.1359 30.9394 87.8673C30.8173 88.2242 29.9216 90.1363 29.6909 91.0862C29.5688 91.5815 29.6366 91.9534 29.7316 92.1162C29.8673 92.3496 30.1116 92.5694 30.4916 92.7201C30.9801 92.9114 31.7943 93.0227 32.7035 93.1679C33.5585 93.3023 34.5219 93.4732 35.3633 93.8342C36.0689 94.1423 36.6797 94.5874 36.9782 95.3283C37.1275 95.7069 37.5482 95.8942 37.9281 95.7449C38.3081 95.5956 38.498 95.1655 38.3488 94.7869C37.9145 93.6659 37.019 92.9454 35.9469 92.4799C34.997 92.0687 33.9113 91.8611 32.9343 91.7091C32.3507 91.6155 31.8079 91.5435 31.3872 91.4472C31.3193 91.4323 31.2515 91.4092 31.1836 91.3861Z" fill="white"/>
</g>
<defs>
<clipPath id="clip0_381_76">
<rect width="96" height="96" fill="white"/>
</clipPath>
</defs>
</svg>
