<svg width="64" height="50" viewBox="0 0 64 50" fill="none" xmlns="http://www.w3.org/2000/svg">
<rect width="50" height="41" rx="8" fill="#F1FCFF"/>
<g clip-path="url(#clip0_322_129)">
<path d="M35.6667 33.3333C39.3433 33.3333 42.3333 30.3433 42.3333 26.6667C42.3333 22.99 39.3433 20 35.6667 20C31.99 20 29 22.99 29 26.6667C29 30.3433 31.99 33.3333 35.6667 33.3333ZM35.6667 23.3333C37.505 23.3333 39 24.8283 39 26.6667C39 28.505 37.505 30 35.6667 30C33.8283 30 32.3333 28.505 32.3333 26.6667C32.3333 24.8283 33.8283 23.3333 35.6667 23.3333ZM47.3333 48.3333C47.3333 49.255 46.5867 50 45.6667 50C44.7467 50 44 49.255 44 48.3333C44 43.7383 40.2617 40 35.6667 40C31.0717 40 27.3333 43.7383 27.3333 48.3333C27.3333 49.255 26.5867 50 25.6667 50C24.7467 50 24 49.255 24 48.3333C24 41.9017 29.2333 36.6667 35.6667 36.6667C42.1 36.6667 47.3333 41.9017 47.3333 48.3333ZM64 18.3333V31.6667C64 36.2617 60.2617 40 55.6667 40H49C48.08 40 47.3333 39.255 47.3333 38.3333V35C47.3333 34.0783 48.08 33.3333 49 33.3333H54C54.92 33.3333 55.6667 34.0783 55.6667 35V36.6667C58.4233 36.6667 60.6667 34.4233 60.6667 31.6667V18.3333C60.6667 15.5767 58.4233 13.3333 55.6667 13.3333H39.775C37.995 13.3333 36.335 14.2917 35.4433 15.835C34.9817 16.6317 33.9633 16.9067 33.1667 16.4417C32.3683 15.9817 32.0967 14.9617 32.5583 14.165C34.045 11.5967 36.81 10 39.7767 10H55.6683C60.2633 10 64 13.7383 64 18.3333Z" fill="#339ABC"/>
</g>
<defs>
<clipPath id="clip0_322_129">
<rect width="40" height="40" fill="white" transform="translate(24 10)"/>
</clipPath>
</defs>
</svg>
