<svg width="60" height="60" viewBox="0 0 60 60" fill="none" xmlns="http://www.w3.org/2000/svg">
<path d="M16.2146 16.9227H21.1081C24.2955 16.9227 26.8795 19.5065 26.8795 22.694V31.2247H9.00977V22.694C9.00977 19.5067 11.5936 16.9227 14.7811 16.9227H19.6746" fill="#F1FCFF"/>
<path d="M40.703 16.9227H45.5965C48.7839 16.9227 51.3679 19.5065 51.3679 22.694V31.2247H33.498V22.694C33.498 19.5067 36.0819 16.9227 39.2694 16.9227H44.1629" fill="#F1FCFF"/>
<path d="M58.2509 29.4756H53.1172V22.6938C53.1172 19.804 51.4778 17.2911 49.0811 16.0324C49.7046 15.0962 50.0692 13.9734 50.0692 12.7669V8.86018C50.0692 7.89409 49.2859 7.11104 48.32 7.11104C47.3542 7.11104 46.5709 7.89409 46.5709 8.86018V12.767C46.5709 14.0876 45.5017 15.1624 44.1834 15.1735H40.683C39.3649 15.1625 38.2956 14.0877 38.2956 12.767V8.86018C38.2956 7.53268 39.3757 6.45268 40.7033 6.45268H44.1632C45.129 6.45268 45.9123 5.66964 45.9123 4.70354C45.9123 3.73745 45.1289 2.95428 44.163 2.95428H40.7032C37.4466 2.95428 34.7972 5.60354 34.7972 8.86018V12.767C34.7972 13.9738 35.1615 15.0966 35.7853 16.0325C33.3886 17.2912 31.7491 19.8041 31.7491 22.6939V29.4757H28.6288V22.6939C28.6288 19.8041 26.9895 17.2912 24.5926 16.0325C25.2162 15.0963 25.5807 13.9735 25.5807 12.767V8.86018C25.5807 7.89409 24.7975 7.11104 23.8316 7.11104C22.8657 7.11104 22.0825 7.89409 22.0825 8.86018V12.767C22.0825 14.0876 21.0132 15.1624 19.695 15.1735H16.195C14.8768 15.1625 13.8075 14.0877 13.8075 12.767V8.86018C13.8075 7.53268 14.8876 6.45268 16.2152 6.45268H19.6751C20.6409 6.45268 21.4242 5.66964 21.4242 4.70354C21.4242 3.73745 20.6409 2.9544 19.6751 2.9544H16.215C12.9584 2.9544 10.309 5.60366 10.309 8.8603V12.7671C10.309 13.9739 10.6733 15.0967 11.2971 16.0326C8.90039 17.2915 7.26105 19.8042 7.26105 22.6942V29.4759H6.4207C6.41719 29.4759 6.41367 29.4759 6.41016 29.4759H1.74914C0.783281 29.4758 0 30.2589 0 31.225C0 32.191 0.783281 32.9741 1.74914 32.9741H5.07152L11.706 55.785C11.9232 56.5319 12.6076 57.0456 13.3857 57.0456H46.6145C47.3924 57.0456 48.0768 56.5318 48.2943 55.7848L52.6602 40.773C52.6607 40.7715 52.661 40.7701 52.6616 40.7685L52.67 40.7398C52.6746 40.7238 52.6772 40.7081 52.6813 40.6922C52.6908 40.656 52.7002 40.6198 52.7072 40.5827C52.7128 40.5535 52.7164 40.5242 52.7204 40.4953C52.7241 40.4683 52.7286 40.4416 52.7311 40.4143C52.7347 40.3745 52.7361 40.3349 52.7371 40.2953C52.7374 40.2806 52.7393 40.2664 52.7393 40.2516C52.7393 40.248 52.7388 40.2448 52.7388 40.2412C52.7387 40.198 52.7357 40.1552 52.7324 40.1123C52.7312 40.0964 52.7309 40.0801 52.7291 40.0644C52.7251 40.0268 52.7184 39.9898 52.7121 39.9526C52.7085 39.9317 52.706 39.9107 52.7016 39.89C52.6958 39.8627 52.688 39.836 52.6807 39.8091C52.673 39.7799 52.6662 39.7502 52.657 39.7216C52.652 39.7059 52.6454 39.6907 52.6399 39.6749C52.6267 39.6366 52.6132 39.5985 52.5974 39.5616C52.5939 39.5537 52.5896 39.5462 52.5861 39.5381C52.5667 39.4948 52.5464 39.4519 52.5237 39.4106C52.5184 39.4011 52.5123 39.3924 52.5069 39.383C52.4846 39.3443 52.4622 39.3058 52.4371 39.2689C52.4211 39.2455 52.4031 39.2236 52.3862 39.2008C52.3699 39.1793 52.3549 39.1573 52.3378 39.1366C52.3088 39.1015 52.2777 39.0682 52.2458 39.0354C52.239 39.0283 52.233 39.0207 52.226 39.0137C52.1919 38.9794 52.1555 38.9473 52.1184 38.916C52.1127 38.911 52.1074 38.9057 52.1018 38.901C52.0703 38.8751 52.0368 38.8512 52.0031 38.8274C51.9902 38.8181 51.9779 38.8079 51.9647 38.799C51.9391 38.7819 51.9118 38.7667 51.8852 38.7507C51.862 38.7369 51.8394 38.7223 51.8154 38.7095C51.7959 38.6992 51.7755 38.6904 51.7556 38.6807C51.7226 38.6646 51.6899 38.6483 51.6555 38.6342C51.6402 38.6279 51.6239 38.6229 51.6081 38.6169C51.5687 38.602 51.5293 38.5875 51.4887 38.5754C51.4852 38.5744 51.482 38.573 51.4785 38.5719C51.4635 38.5676 51.4484 38.5651 51.4331 38.5612C51.3959 38.5514 51.3588 38.5418 51.3206 38.5346C51.2921 38.529 51.2636 38.5255 51.2351 38.5215C51.2074 38.5176 51.1801 38.5131 51.1522 38.5105C51.1127 38.5069 51.0734 38.5056 51.034 38.5045C51.0191 38.5042 51.0048 38.5023 50.9897 38.5023H50.963C50.96 38.5023 50.957 38.5023 50.9541 38.5023H23.8316C22.8657 38.5023 22.0825 39.2853 22.0825 40.2514C22.0825 41.2175 22.8657 42.0006 23.8316 42.0006H48.6596L45.3016 53.5471H14.6985L8.71488 32.9741H9.00996H26.8796H33.4983H51.368H58.2507C59.2166 32.9741 59.9999 32.191 59.9999 31.225C60 30.2587 59.2167 29.4756 58.2509 29.4756ZM10.7591 29.4756V22.6938C10.7591 20.476 12.5633 18.6718 14.7811 18.6718H16.1743C16.1815 18.6718 16.1885 18.6723 16.1957 18.6723V24.9486C16.1957 25.9147 16.9789 26.6978 17.9448 26.6978C18.9107 26.6978 19.6939 25.9147 19.6939 24.9486V18.6723C19.701 18.6723 19.7079 18.6718 19.7152 18.6718H21.1084C23.3262 18.6718 25.1304 20.476 25.1304 22.6938V29.4756H10.7591ZM35.2475 29.4756V22.6938C35.2475 20.476 37.0518 18.6718 39.2695 18.6718H40.6628C40.6699 18.6718 40.677 18.6723 40.6841 18.6723V24.9486C40.6841 25.9147 41.4674 26.6978 42.4332 26.6978C43.3991 26.6978 44.1824 25.9147 44.1824 24.9486V18.6723C44.1895 18.6723 44.1963 18.6718 44.2036 18.6718H45.5968C47.8146 18.6718 49.6188 20.476 49.6188 22.6938V29.4756H35.2475Z" fill="#339ABC"/>
</svg>
