<svg width="64" height="51" viewBox="0 0 64 51" fill="none" xmlns="http://www.w3.org/2000/svg">
<rect y="0.5" width="50" height="41" rx="8" fill="#F1FCFF"/>
<g clip-path="url(#clip0_381_149)">
<path d="M55.6667 17.1667H53.8333C53.4465 15.2857 52.423 13.5956 50.9354 12.3812C49.4478 11.1668 47.587 10.5024 45.6667 10.5L42.3333 10.5C40.413 10.5024 38.5522 11.1668 37.0646 12.3812C35.577 13.5956 34.5535 15.2857 34.1667 17.1667H32.3333C30.124 17.1693 28.0059 18.0481 26.4437 19.6104C24.8815 21.1726 24.0026 23.2907 24 25.5V42.1667C24.0026 44.376 24.8815 46.4941 26.4437 48.0563C28.0059 49.6185 30.124 50.4974 32.3333 50.5H55.6667C57.876 50.4974 59.9941 49.6185 61.5563 48.0563C63.1185 46.4941 63.9974 44.376 64 42.1667V25.5C63.9974 23.2907 63.1185 21.1726 61.5563 19.6104C59.9941 18.0481 57.876 17.1693 55.6667 17.1667ZM42.3333 13.8333H45.6667C46.6971 13.8376 47.701 14.1601 48.5412 14.7568C49.3813 15.3535 50.0165 16.1952 50.36 17.1667H37.64C37.9835 16.1952 38.6187 15.3535 39.4588 14.7568C40.299 14.1601 41.3029 13.8376 42.3333 13.8333ZM32.3333 20.5H55.6667C56.9927 20.5 58.2645 21.0268 59.2022 21.9645C60.1399 22.9021 60.6667 24.1739 60.6667 25.5V30.5H27.3333V25.5C27.3333 24.1739 27.8601 22.9021 28.7978 21.9645C29.7355 21.0268 31.0073 20.5 32.3333 20.5ZM55.6667 47.1667H32.3333C31.0073 47.1667 29.7355 46.6399 28.7978 45.7022C27.8601 44.7645 27.3333 43.4927 27.3333 42.1667V33.8333H42.3333V35.5C42.3333 35.942 42.5089 36.3659 42.8215 36.6785C43.134 36.9911 43.558 37.1667 44 37.1667C44.442 37.1667 44.8659 36.9911 45.1785 36.6785C45.4911 36.3659 45.6667 35.942 45.6667 35.5V33.8333H60.6667V42.1667C60.6667 43.4927 60.1399 44.7645 59.2022 45.7022C58.2645 46.6399 56.9927 47.1667 55.6667 47.1667Z" fill="#339ABC"/>
</g>
<defs>
<clipPath id="clip0_381_149">
<rect width="40" height="40" fill="white" transform="translate(24 10.5)"/>
</clipPath>
</defs>
</svg>
