<svg width="28" height="29" viewBox="0 0 28 29" fill="none" xmlns="http://www.w3.org/2000/svg">
<g clip-path="url(#clip0_381_466)">
<path d="M14 0.905029C8.20138 0.905029 3.5 5.6064 3.5 11.405C3.5 13.6883 4.24856 15.7835 5.49281 17.4994C5.51513 17.5405 5.51863 17.5865 5.544 17.6258L12.544 28.1258C12.8686 28.6128 13.4155 28.905 14 28.905C14.5845 28.905 15.1314 28.6128 15.456 28.1258L22.456 17.6258C22.4818 17.5865 22.4849 17.5405 22.5072 17.4994C23.7514 15.7835 24.5 13.6883 24.5 11.405C24.5 5.6064 19.7986 0.905029 14 0.905029ZM14 14.905C12.0671 14.905 10.5 13.3379 10.5 11.405C10.5 9.47215 12.0671 7.90503 14 7.90503C15.9329 7.90503 17.5 9.47215 17.5 11.405C17.5 13.3379 15.9329 14.905 14 14.905Z" fill="#8E8E93"/>
</g>
<defs>
<clipPath id="clip0_381_466">
<rect width="28" height="28" fill="white" transform="translate(0 0.905029)"/>
</clipPath>
</defs>
</svg>
