<svg width="28" height="29" viewBox="0 0 28 29" fill="none" xmlns="http://www.w3.org/2000/svg">
<path d="M24.7346 4.4812H3.26539C1.46169 4.4812 0 5.94289 0 7.7461V21.064C0 22.8672 1.46169 24.3289 3.26539 24.3289H24.7346C26.5378 24.3289 28 22.8672 28 21.064V7.7461C28 5.94289 26.5379 4.4812 24.7346 4.4812ZM26.4409 21.9437L25.8193 22.6798L17.1148 15.5758L15.7668 16.8584C14.7678 17.7758 13.2323 17.7758 12.2332 16.8584L10.8852 15.5758L2.18072 22.6798L1.55914 21.9437L9.73164 14.4779L1.5056 6.74707L1.99194 6.10269L14 15.2013L26.008 6.10269L26.494 6.74707L18.2684 14.4779L26.4409 21.9437Z" fill="#8E8E93"/>
</svg>
