<svg width="28" height="29" viewBox="0 0 28 29" fill="none" xmlns="http://www.w3.org/2000/svg">
<path d="M11.7109 7.10731L12.468 8.46406C13.1513 9.68846 12.8771 11.2947 11.8008 12.3709C11.8008 12.3709 10.4955 13.6764 12.8622 16.0432C15.2282 18.4092 16.5346 17.1046 16.5346 17.1046C17.6108 16.0284 19.217 15.7541 20.4414 16.4374L21.7981 17.1946C23.647 18.2264 23.8653 20.8192 22.2403 22.4443C21.2638 23.4208 20.0675 24.1807 18.745 24.2307C16.5189 24.3152 12.7383 23.7518 8.94598 19.9595C5.15365 16.1671 4.59024 12.3865 4.67464 10.1604C4.72477 8.83798 5.48459 7.64171 6.46111 6.66521C8.08622 5.0401 10.679 5.25846 11.7109 7.10731Z" fill="#8E8E93"/>
<path d="M15.4691 3.09809C15.5463 2.62105 15.9972 2.29745 16.4743 2.37467C16.5038 2.38033 16.5989 2.39809 16.6486 2.40917C16.7482 2.43135 16.887 2.46547 17.0602 2.51591C17.4064 2.61675 17.8901 2.7829 18.4707 3.04905C19.633 3.58194 21.1798 4.5141 22.7849 6.1192C24.39 7.7243 25.3222 9.27108 25.855 10.4334C26.1212 11.014 26.2873 11.4977 26.3881 11.8439C26.4385 12.0171 26.4727 12.1559 26.4949 12.2555C26.506 12.3052 26.5141 12.3452 26.5197 12.3747L26.5265 12.4111C26.6036 12.8881 26.283 13.3578 25.806 13.4351C25.3303 13.5121 24.8822 13.19 24.8031 12.7152C24.8007 12.7024 24.7939 12.6682 24.7868 12.6359C24.7723 12.5713 24.7475 12.4688 24.708 12.3333C24.629 12.0622 24.492 11.6594 24.2642 11.1627C23.8095 10.1707 22.9916 8.80082 21.5474 7.35664C20.1033 5.91247 18.7334 5.09465 17.7414 4.63985C17.2447 4.41216 16.8419 4.27504 16.5708 4.19608C16.4353 4.15661 16.265 4.11752 16.2003 4.10313C15.7255 4.024 15.3921 3.57376 15.4691 3.09809Z" fill="#8E8E93"/>
<path fill-rule="evenodd" clip-rule="evenodd" d="M15.7331 7.12264C15.8659 6.65798 16.3501 6.38893 16.8148 6.52168L16.5745 7.36302C16.8148 6.52168 16.8148 6.52168 16.8148 6.52168L16.8166 6.52217L16.8183 6.52269L16.8222 6.52382L16.8313 6.52652L16.8544 6.53371C16.8719 6.53933 16.8939 6.54666 16.9201 6.55596C16.9724 6.57456 17.0417 6.60099 17.1267 6.63739C17.2967 6.71024 17.5288 6.82273 17.8142 6.99156C18.3852 7.32952 19.1647 7.89089 20.0806 8.80669C20.9964 9.7225 21.5577 10.502 21.8957 11.0731C22.0645 11.3584 22.1769 11.5906 22.2499 11.7606C22.2863 11.8455 22.3127 11.9148 22.3313 11.9671C22.3406 11.9933 22.3479 12.0153 22.3536 12.0329L22.3607 12.056L22.3634 12.065L22.3645 12.0689L22.365 12.0707C22.365 12.0707 22.3656 12.0724 21.5242 12.3128L22.3656 12.0724C22.4984 12.537 22.2292 13.0213 21.7646 13.1541C21.3039 13.2857 20.8238 13.0224 20.6863 12.5649L20.682 12.5524C20.6758 12.5348 20.663 12.5003 20.6414 12.4499C20.5982 12.3492 20.5199 12.1844 20.3897 11.9644C20.1296 11.5249 19.6597 10.8608 18.8431 10.0441C18.0265 9.22752 17.3623 8.75771 16.9229 8.49757C16.7028 8.36735 16.5381 8.28907 16.4373 8.2459C16.3869 8.22431 16.3524 8.21142 16.3349 8.20521L16.3223 8.2009C15.8649 8.06337 15.6015 7.58335 15.7331 7.12264Z" fill="#8E8E93"/>
</svg>
