<svg width="60" height="60" viewBox="0 0 60 60" fill="none" xmlns="http://www.w3.org/2000/svg">
<g clip-path="url(#clip0_381_275)">
<path d="M25.6894 24.2624H31.2688C34.9029 24.2624 37.8491 27.2084 37.8491 30.8427V40.5691H17.4746V30.8427C17.4746 27.2086 20.4206 24.2624 24.0549 24.2624H29.6343" fill="#F1FCFF"/>
<path d="M34.9504 23.3201C35.7172 22.2491 36.1706 20.939 36.1706 19.5242V15.0698C36.1706 14.0774 35.3659 13.2729 34.3736 13.2729C33.3814 13.2729 32.5767 14.0774 32.5767 15.0698V19.5242C32.5767 21.1385 31.2697 22.4523 29.6585 22.4654H25.6651C24.0539 22.4522 22.7469 21.1385 22.7469 19.5242V15.0698C22.7469 13.4475 24.0668 12.1274 25.6894 12.1274H29.6344C30.6267 12.1274 31.4313 11.3229 31.4313 10.3305C31.4313 9.338 30.6266 8.53351 29.6344 8.53351H25.6894C22.0852 8.53351 19.1529 11.4656 19.1529 15.07V19.5244C19.1529 20.9392 19.6061 22.2492 20.3731 23.3202C17.5949 24.6854 15.6777 27.5441 15.6777 30.8428V40.5692C15.6777 41.5616 16.4822 42.3662 17.4747 42.3662H37.8491C38.8414 42.3662 39.6461 41.5617 39.6461 40.5692V30.8428C39.646 27.5437 37.7287 24.6853 34.9504 23.3201ZM36.052 38.7721H19.2715V30.8426C19.2715 28.2052 21.4171 26.0594 24.0547 26.0594H25.6407C25.6569 26.0596 25.6729 26.0607 25.6891 26.0607H25.8647V33.4135C25.8647 34.4059 26.6692 35.2106 27.6616 35.2106C28.6541 35.2106 29.4586 34.4061 29.4586 33.4135V26.0607H29.634C29.6502 26.0607 29.6661 26.0596 29.6823 26.0594H31.2683C33.9059 26.0594 36.0515 28.205 36.0515 30.8426V38.7721H36.052Z" fill="#339ABC"/>
<path d="M27.5045 55.0076C20.458 55.0076 13.4117 52.3254 8.04742 46.9612C-2.68117 36.2326 -2.68117 18.7756 8.04742 8.04685C18.776 -2.68185 36.233 -2.68174 46.9617 8.04685C47.6634 8.74857 47.6634 9.88646 46.9617 10.5882C46.2598 11.2899 45.1223 11.2899 44.4202 10.5882C39.9018 6.06979 33.8944 3.58144 27.5045 3.58144C21.1145 3.58144 15.1069 6.06991 10.5886 10.5882C1.26124 19.9156 1.26124 35.0923 10.5886 44.4198C15.107 48.9382 21.1144 51.4266 27.5043 51.4266C33.8943 51.4266 39.9017 48.9382 44.42 44.4198C45.122 43.7181 46.2594 43.7181 46.9616 44.4198C47.6633 45.1215 47.6633 46.2594 46.9616 46.9612C41.5972 52.3255 34.5508 55.0076 27.5045 55.0076Z" fill="#339ABC"/>
<path d="M8.83659 28.4415C8.8087 28.4415 8.78105 28.4409 8.75304 28.4397C7.76164 28.3945 6.99465 27.5538 7.04 26.5624C7.27402 21.4501 9.3971 16.6403 13.0184 13.0187C13.7201 12.317 14.858 12.3168 15.5597 13.0187C16.2614 13.7207 16.2617 14.8583 15.5597 15.5601C12.5737 18.5463 10.823 22.512 10.6301 26.7268C10.5864 27.69 9.7912 28.4415 8.83659 28.4415Z" fill="#339ABC"/>
<path d="M54.0052 58.2025L58.2021 54.0056L52.0611 47.8645L47.8642 52.0614L54.0052 58.2025Z" fill="#F1FCFF"/>
<path d="M59.4735 52.7348L53.3319 46.5932C52.6299 45.8916 51.4925 45.8916 50.7903 46.5932L49.9623 47.4212L46.9608 44.4195C46.6098 44.0685 46.15 43.8932 45.6901 43.8932C45.6818 43.8932 45.6736 43.8943 45.6652 43.8945C45.6161 43.8952 45.5668 43.8968 45.518 43.9015C45.2004 43.9319 44.8904 44.0485 44.6223 44.2475C44.5519 44.2997 44.4832 44.3556 44.4195 44.4196C44.4192 44.4198 44.4191 44.4202 44.4188 44.4203C35.0914 53.7471 19.9151 53.7465 10.588 44.4196C1.26065 35.0922 1.26065 19.9154 10.588 10.5879C19.9152 1.26079 35.092 1.26055 44.4195 10.5879C51.1535 17.322 53.2538 27.4016 49.7702 36.2669C49.4072 37.1906 49.8619 38.2338 50.7855 38.5966C51.7096 38.9597 52.7524 38.5049 53.1153 37.5813C57.1217 27.3849 54.706 15.7917 46.9608 8.0465C36.2322 -2.68209 18.7752 -2.68209 8.04649 8.0465C-2.68222 18.7751 -2.6821 36.2321 8.04649 46.9608C13.4108 52.3252 20.4572 55.0072 27.5035 55.0072C33.9891 55.0072 40.4734 52.7331 45.6474 48.1888L47.4209 49.9624L46.5928 50.7905C45.8911 51.4922 45.8911 52.6301 46.5928 53.332L52.7345 59.4737C53.0716 59.8106 53.5285 60 54.0051 60C54.4817 60 54.9386 59.8106 55.2758 59.4737L59.4732 55.2763C59.8101 54.9394 59.9995 54.4822 59.9995 54.0056C59.9996 53.5289 59.8105 53.0718 59.4735 52.7348ZM54.0052 55.6618L50.4052 52.0615L52.0612 50.4054L55.6613 54.0057L54.0052 55.6618Z" fill="#339ABC"/>
</g>
<defs>
<clipPath id="clip0_381_275">
<rect width="60" height="60" fill="white"/>
</clipPath>
</defs>
</svg>
