<svg width="60" height="60" viewBox="0 0 60 60" fill="none" xmlns="http://www.w3.org/2000/svg">
<g clip-path="url(#clip0_322_252)">
<path d="M21.9471 19.1177L24.3499 22.9498L28.7369 24.051L25.8349 27.5204L26.1433 32.033L21.9471 30.3451L17.7506 32.033L18.059 27.5204L15.1572 24.051L19.5443 22.9498L21.9471 19.1177Z" fill="#F1FCFF"/>
<path d="M17.751 33.7977C17.3837 33.7977 17.0197 33.6832 16.7135 33.4607C16.222 33.1035 15.9487 32.5187 15.9901 31.9126L16.2503 28.1081L13.8036 25.1834C13.414 24.7173 13.2913 24.0836 13.4789 23.5058C13.6666 22.9281 14.1383 22.4875 14.7276 22.3396L18.4263 21.4114L20.452 18.1805C20.7748 17.6657 21.3397 17.3531 21.9472 17.3531C22.5547 17.3531 23.1197 17.6657 23.4424 18.1805L25.4681 21.4114L29.1665 22.3396C29.7558 22.4875 30.2274 22.9281 30.4153 23.5058C30.6029 24.0836 30.4802 24.7174 30.0906 25.1834L27.6439 28.1084L27.9041 31.9129C27.9456 32.5191 27.6724 33.1039 27.1807 33.4609C26.6891 33.8179 26.0484 33.8972 25.485 33.6706L21.9471 32.2476L18.4091 33.6706C18.1967 33.7556 17.9733 33.7977 17.751 33.7977ZM18.3165 25.0773L19.4129 26.388C19.7049 26.7374 19.8507 27.1861 19.8199 27.6406L19.7034 29.3454L21.2889 28.7077C21.7115 28.5378 22.1832 28.5378 22.6058 28.7077L24.191 29.3453L24.0745 27.6406C24.0435 27.1861 24.1892 26.7374 24.4815 26.388L25.5779 25.0773L23.9205 24.6614C23.4789 24.5506 23.0969 24.2732 22.8549 23.8873L21.9472 22.4396L21.0395 23.8873C20.7975 24.2732 20.4157 24.5505 19.9739 24.6614L18.3165 25.0773Z" fill="#339ABC"/>
<path d="M44.843 24.2557H34.7843C33.8098 24.2557 33.0195 23.4656 33.0195 22.491C33.0195 21.5163 33.8097 20.7263 34.7843 20.7263H44.843C45.8175 20.7263 46.6078 21.5163 46.6078 22.491C46.6078 23.4656 45.8177 24.2557 44.843 24.2557Z" fill="#339ABC"/>
<path d="M41.3114 30.4245H34.7843C33.8098 30.4245 33.0195 29.6344 33.0195 28.6597C33.0195 27.6851 33.8097 26.895 34.7843 26.895H41.3114C42.2858 26.895 43.0761 27.6851 43.0761 28.6597C43.076 29.6344 42.2858 30.4245 41.3114 30.4245Z" fill="#339ABC"/>
<path d="M21.9471 38.1899L24.3499 42.0219L28.7369 43.1229L25.8349 46.5925L26.1433 51.105L21.9471 49.417L17.7506 51.105L18.059 46.5925L15.1572 43.1229L19.5443 42.0219L21.9471 38.1899Z" fill="#F1FCFF"/>
<path d="M26.1435 52.8697C25.9212 52.8697 25.6977 52.8278 25.4852 52.7423L21.9473 51.3193L18.4093 52.7423C17.8459 52.969 17.2051 52.8897 16.7136 52.5327C16.2221 52.1755 15.9487 51.5907 15.9902 50.9847L16.2504 47.1802L13.8036 44.2552C13.414 43.7891 13.2913 43.1554 13.4789 42.5776C13.6666 41.9999 14.1383 41.5593 14.7276 41.4114L18.4263 40.4831L20.452 37.2523C20.7748 36.7375 21.3397 36.4249 21.9472 36.4249C22.5547 36.4249 23.1197 36.7375 23.4424 37.2523L25.4681 40.4831L29.1665 41.4114C29.7558 41.5593 30.2274 41.9999 30.4153 42.5776C30.6029 43.1554 30.4802 43.7891 30.0906 44.2552L27.6439 47.1802L27.9041 50.9847C27.9456 51.5909 27.6724 52.1756 27.1807 52.5327C26.8746 52.7552 26.5107 52.8697 26.1435 52.8697ZM18.3165 44.1495L19.4129 45.4601C19.7049 45.8095 19.8507 46.2582 19.8199 46.7127L19.7034 48.4175L21.2889 47.7798C21.7115 47.6099 22.1832 47.6099 22.6058 47.7798L24.191 48.4175L24.0745 46.7127C24.0435 46.2582 24.1892 45.8095 24.4815 45.4601L25.5779 44.1495L23.9205 43.7336C23.4789 43.6227 23.0969 43.3453 22.8549 42.9594L21.9472 41.5117L21.0395 42.9594C20.7975 43.3453 20.4157 43.6226 19.9739 43.7336L18.3165 44.1495Z" fill="#339ABC"/>
<path d="M44.843 43.3277H34.7843C33.8098 43.3277 33.0195 42.5377 33.0195 41.563C33.0195 40.5884 33.8097 39.7983 34.7843 39.7983H44.843C45.8175 39.7983 46.6078 40.5884 46.6078 41.563C46.6078 42.5377 45.8177 43.3277 44.843 43.3277Z" fill="#339ABC"/>
<path d="M41.3114 49.4963H34.7843C33.8098 49.4963 33.0195 48.7062 33.0195 47.7315C33.0195 46.7569 33.8097 45.9668 34.7843 45.9668H41.3114C42.2858 45.9668 43.0761 46.7569 43.0761 47.7315C43.076 48.7063 42.2858 49.4963 41.3114 49.4963Z" fill="#339ABC"/>
<path d="M20.2934 6.71118H7.94043V12.3528H20.2934V6.71118Z" fill="#F1FCFF"/>
<path d="M52.059 6.71118H39.7061V12.3528H52.059V6.71118Z" fill="#F1FCFF"/>
<path d="M37.9411 12.353C37.9411 13.3276 38.7313 14.1177 39.7058 14.1177H52.0593C53.0337 14.1177 53.824 13.3276 53.824 12.353V6.71133C53.824 5.73668 53.0338 4.9466 52.0593 4.9466H41.4705V1.76473C41.4704 0.790078 40.6802 0 39.7058 0H20.2939C19.3195 0 18.5292 0.790078 18.5292 1.76473V4.94672H7.94051C6.96609 4.94672 6.17578 5.7368 6.17578 6.71145V12.3531V58.2354C6.17578 59.21 6.96598 60.0001 7.94051 60.0001H52.0593C53.0337 60.0001 53.824 59.21 53.824 58.2354V22.491C53.824 21.5163 53.0338 20.7262 52.0593 20.7262C51.0847 20.7262 50.2945 21.5163 50.2945 22.491V56.4705H9.70523V14.1177H20.2939H32.7122C33.6866 14.1177 34.4769 13.3276 34.4769 12.353C34.4769 11.3783 33.6867 10.5882 32.7122 10.5882H22.0587V6.71133V3.52945H37.941V6.71133V12.353H37.9411ZM9.70523 8.47606H18.5293V10.5882H9.70523V8.47606ZM50.2945 10.5882H41.4704V8.47606H50.2945V10.5882Z" fill="#339ABC"/>
</g>
<defs>
<clipPath id="clip0_322_252">
<rect width="60" height="60" fill="white"/>
</clipPath>
</defs>
</svg>
