<svg width="141" height="20" viewBox="0 0 141 20" fill="none" xmlns="http://www.w3.org/2000/svg">
<g clip-path="url(#clip0_381_305)">
<path d="M10.8826 1.12969L12.9857 5.92656C13.0648 6.10709 13.1909 6.26307 13.3509 6.37823C13.5108 6.49339 13.6988 6.5635 13.8951 6.58125L19.0185 7.04062C19.5982 7.125 19.8294 7.83594 19.4091 8.24531L15.5497 11.4875C15.2372 11.75 15.0951 12.1625 15.181 12.5609L16.3029 17.8125C16.4013 18.3891 15.7966 18.8297 15.2779 18.5562L10.806 15.9375C10.6373 15.8385 10.4453 15.7863 10.2497 15.7863C10.0542 15.7863 9.86215 15.8385 9.69349 15.9375L5.22162 18.5547C4.70443 18.8266 4.09818 18.3875 4.19662 17.8109L5.3185 12.5594C5.40287 12.1609 5.26225 11.7484 4.94975 11.4859L1.08881 8.24687C0.67006 7.83906 0.90131 7.12656 1.47943 7.04219L6.60287 6.58281C6.79917 6.56506 6.98711 6.49495 7.14706 6.37979C7.30702 6.26464 7.43314 6.10865 7.51224 5.92812L9.61537 1.13125C9.87631 0.60625 10.6232 0.60625 10.8826 1.12969Z" fill="#FDD835"/>
<path d="M10.7292 6.21401L10.3729 2.67964C10.3589 2.48276 10.3183 2.14526 10.6339 2.14526C10.8839 2.14526 11.0198 2.66558 11.0198 2.66558L12.0886 5.50308C12.4917 6.58276 12.3261 6.95308 11.937 7.17183C11.4901 7.42183 10.8308 7.22651 10.7292 6.21401Z" fill="#FFFF8D"/>
<path d="M15.1375 11.1735L18.2032 8.7813C18.3547 8.65474 18.6282 8.45317 18.4094 8.22349C18.236 8.04224 17.7672 8.30317 17.7672 8.30317L15.0844 9.35161C14.2844 9.62817 13.7532 10.0375 13.7063 10.5532C13.6454 11.2407 14.2625 11.7704 15.1375 11.1735Z" fill="#F4B400"/>
</g>
<g clip-path="url(#clip1_381_305)">
<path d="M40.8826 1.12969L42.9857 5.92656C43.0648 6.10709 43.1909 6.26307 43.3509 6.37823C43.5108 6.49339 43.6988 6.5635 43.8951 6.58125L49.0185 7.04062C49.5982 7.125 49.8294 7.83594 49.4091 8.24531L45.5497 11.4875C45.2372 11.75 45.0951 12.1625 45.181 12.5609L46.3029 17.8125C46.4013 18.3891 45.7966 18.8297 45.2779 18.5562L40.806 15.9375C40.6373 15.8385 40.4453 15.7863 40.2497 15.7863C40.0542 15.7863 39.8622 15.8385 39.6935 15.9375L35.2216 18.5547C34.7044 18.8266 34.0982 18.3875 34.1966 17.8109L35.3185 12.5594C35.4029 12.1609 35.2622 11.7484 34.9497 11.4859L31.0888 8.24687C30.6701 7.83906 30.9013 7.12656 31.4794 7.04219L36.6029 6.58281C36.7992 6.56506 36.9871 6.49495 37.1471 6.37979C37.307 6.26464 37.4331 6.10865 37.5122 5.92812L39.6154 1.13125C39.8763 0.60625 40.6232 0.60625 40.8826 1.12969Z" fill="#FDD835"/>
<path d="M40.7292 6.21401L40.3729 2.67964C40.3589 2.48276 40.3183 2.14526 40.6339 2.14526C40.8839 2.14526 41.0198 2.66558 41.0198 2.66558L42.0886 5.50308C42.4917 6.58276 42.3261 6.95308 41.937 7.17183C41.4901 7.42183 40.8308 7.22651 40.7292 6.21401Z" fill="#FFFF8D"/>
<path d="M45.1375 11.1735L48.2032 8.7813C48.3547 8.65474 48.6282 8.45317 48.4094 8.22349C48.236 8.04224 47.7672 8.30317 47.7672 8.30317L45.0844 9.35161C44.2844 9.62817 43.7532 10.0375 43.7063 10.5532C43.6454 11.2407 44.2625 11.7704 45.1375 11.1735Z" fill="#F4B400"/>
</g>
<g clip-path="url(#clip2_381_305)">
<path d="M70.8826 1.12969L72.9857 5.92656C73.0648 6.10709 73.1909 6.26307 73.3509 6.37823C73.5108 6.49339 73.6988 6.5635 73.8951 6.58125L79.0185 7.04062C79.5982 7.125 79.8294 7.83594 79.4091 8.24531L75.5497 11.4875C75.2372 11.75 75.0951 12.1625 75.181 12.5609L76.3029 17.8125C76.4013 18.3891 75.7966 18.8297 75.2779 18.5562L70.806 15.9375C70.6373 15.8385 70.4453 15.7863 70.2497 15.7863C70.0542 15.7863 69.8622 15.8385 69.6935 15.9375L65.2216 18.5547C64.7044 18.8266 64.0982 18.3875 64.1966 17.8109L65.3185 12.5594C65.4029 12.1609 65.2622 11.7484 64.9497 11.4859L61.0888 8.24687C60.6701 7.83906 60.9013 7.12656 61.4794 7.04219L66.6029 6.58281C66.7992 6.56506 66.9871 6.49495 67.1471 6.37979C67.307 6.26464 67.4331 6.10865 67.5122 5.92812L69.6154 1.13125C69.8763 0.60625 70.6232 0.60625 70.8826 1.12969Z" fill="#FDD835"/>
<path d="M70.7292 6.21401L70.3729 2.67964C70.3589 2.48276 70.3183 2.14526 70.6339 2.14526C70.8839 2.14526 71.0198 2.66558 71.0198 2.66558L72.0886 5.50308C72.4917 6.58276 72.3261 6.95308 71.937 7.17183C71.4901 7.42183 70.8308 7.22651 70.7292 6.21401Z" fill="#FFFF8D"/>
<path d="M75.1375 11.1735L78.2032 8.7813C78.3547 8.65474 78.6282 8.45317 78.4094 8.22349C78.236 8.04224 77.7672 8.30317 77.7672 8.30317L75.0844 9.35161C74.2844 9.62817 73.7532 10.0375 73.7063 10.5532C73.6454 11.2407 74.2625 11.7704 75.1375 11.1735Z" fill="#F4B400"/>
</g>
<g clip-path="url(#clip3_381_305)">
<path d="M100.883 1.12969L102.986 5.92656C103.065 6.10709 103.191 6.26307 103.351 6.37823C103.511 6.49339 103.699 6.5635 103.895 6.58125L109.018 7.04062C109.598 7.125 109.829 7.83594 109.409 8.24531L105.55 11.4875C105.237 11.75 105.095 12.1625 105.181 12.5609L106.303 17.8125C106.401 18.3891 105.797 18.8297 105.278 18.5562L100.806 15.9375C100.637 15.8385 100.445 15.7863 100.25 15.7863C100.054 15.7863 99.8622 15.8385 99.6935 15.9375L95.2216 18.5547C94.7044 18.8266 94.0982 18.3875 94.1966 17.8109L95.3185 12.5594C95.4029 12.1609 95.2622 11.7484 94.9497 11.4859L91.0888 8.24687C90.6701 7.83906 90.9013 7.12656 91.4794 7.04219L96.6029 6.58281C96.7992 6.56506 96.9871 6.49495 97.1471 6.37979C97.307 6.26464 97.4331 6.10865 97.5122 5.92812L99.6154 1.13125C99.8763 0.60625 100.623 0.60625 100.883 1.12969Z" fill="#FDD835"/>
<path d="M100.729 6.21401L100.373 2.67964C100.359 2.48276 100.318 2.14526 100.634 2.14526C100.884 2.14526 101.02 2.66558 101.02 2.66558L102.089 5.50308C102.492 6.58276 102.326 6.95308 101.937 7.17183C101.49 7.42183 100.831 7.22651 100.729 6.21401Z" fill="#FFFF8D"/>
<path d="M105.138 11.1735L108.203 8.7813C108.355 8.65474 108.628 8.45317 108.409 8.22349C108.236 8.04224 107.767 8.30317 107.767 8.30317L105.084 9.35161C104.284 9.62817 103.753 10.0375 103.706 10.5532C103.645 11.2407 104.263 11.7704 105.138 11.1735Z" fill="#F4B400"/>
</g>
<g clip-path="url(#clip4_381_305)">
<path d="M130.883 1.12969L132.986 5.92656C133.065 6.10709 133.191 6.26307 133.351 6.37823C133.511 6.49339 133.699 6.5635 133.895 6.58125L139.018 7.04062C139.598 7.125 139.829 7.83594 139.409 8.24531L135.55 11.4875C135.237 11.75 135.095 12.1625 135.181 12.5609L136.303 17.8125C136.401 18.3891 135.797 18.8297 135.278 18.5562L130.806 15.9375C130.637 15.8385 130.445 15.7863 130.25 15.7863C130.054 15.7863 129.862 15.8385 129.693 15.9375L125.222 18.5547C124.704 18.8266 124.098 18.3875 124.197 17.8109L125.318 12.5594C125.403 12.1609 125.262 11.7484 124.95 11.4859L121.089 8.24687C120.67 7.83906 120.901 7.12656 121.479 7.04219L126.603 6.58281C126.799 6.56506 126.987 6.49495 127.147 6.37979C127.307 6.26464 127.433 6.10865 127.512 5.92812L129.615 1.13125C129.876 0.60625 130.623 0.60625 130.883 1.12969Z" fill="#FDD835"/>
<path d="M130.729 6.21401L130.373 2.67964C130.359 2.48276 130.318 2.14526 130.634 2.14526C130.884 2.14526 131.02 2.66558 131.02 2.66558L132.089 5.50308C132.492 6.58276 132.326 6.95308 131.937 7.17183C131.49 7.42183 130.831 7.22651 130.729 6.21401Z" fill="#FFFF8D"/>
<path d="M135.138 11.1735L138.203 8.7813C138.355 8.65474 138.628 8.45317 138.409 8.22349C138.236 8.04224 137.767 8.30317 137.767 8.30317L135.084 9.35161C134.284 9.62817 133.753 10.0375 133.706 10.5532C133.645 11.2407 134.263 11.7704 135.138 11.1735Z" fill="#F4B400"/>
</g>
<defs>
<clipPath id="clip0_381_305">
<rect width="20" height="20" fill="white" transform="translate(0.25)"/>
</clipPath>
<clipPath id="clip1_381_305">
<rect width="20" height="20" fill="white" transform="translate(30.25)"/>
</clipPath>
<clipPath id="clip2_381_305">
<rect width="20" height="20" fill="white" transform="translate(60.25)"/>
</clipPath>
<clipPath id="clip3_381_305">
<rect width="20" height="20" fill="white" transform="translate(90.25)"/>
</clipPath>
<clipPath id="clip4_381_305">
<rect width="20" height="20" fill="white" transform="translate(120.25)"/>
</clipPath>
</defs>
</svg>
